<svg xmlns="http://www.w3.org/2000/svg" width="105" height="56" fill="none" viewBox="0 0 105 56">
  <path fill="#fff" fill-rule="evenodd" d="M25.9676 39.3537c.6069.8621 1.4476 1.3762 2.522 1.5424 1.1143.1662 2.1788-.0519 3.1936-.6543 1.0148-.6025 1.9848-1.4801 2.9101-2.633.9252-1.1529 1.8206-2.5239 2.6862-4.113.8656-1.5892 1.7211-3.2925 2.5668-5.1102.8457-1.8176 1.6863-3.6872 2.522-5.6087.8358-1.9215 1.6864-3.7858 2.5519-5.5931.8656-1.8072 1.751-3.5106 2.6564-5.1101.9053-1.5995 1.8604-2.97054 2.8653-4.11306 1.0048-1.14251 2.0544-2.01497 3.1488-2.61738 1.0944-.60242 2.2584-.81015 3.4921-.62319.5969.10386.965.09348 1.1043-.03116.1393-.12464.1791-.32198.1194-.59203-.0398-.14541-.1493-.47258-.3283-.98152-.1791-.50894-.4826-1.02306-.9104-1.54239-.4278-.51932-.9899-.945164-1.6863-1.277532-.6964-.3323683-1.5719-.3843001-2.6265-.155797-1.4924.332368-2.8703 1.074989-4.1338 2.227899-1.2635 1.1529-2.4374 2.57064-3.5219 4.25325-1.0844 1.68262-2.0843 3.55211-2.9996 5.60871-.9153 2.0565-1.7808 4.139-2.5966 6.2474-.8158 2.1085-1.5869 4.165-2.3132 6.1696-.7262 2.0046-1.4376 3.8066-2.134 5.4061-.6964 1.5996-1.3879 2.9134-2.0743 3.9417-.6865 1.0283-1.3978 1.6151-2.1341 1.7605-.3382.0623-.5621-.1766-.6715-.7167-.1095-.5401-.1393-1.2723-.0896-2.1967.0498-.9244.1692-1.9942.3582-3.2094.189-1.2152.4129-2.4668.6716-3.7547.2586-1.2879.5322-2.5551.8207-3.8015.2886-1.2463.5572-2.3681.8059-3.3652.2487-.9971.4676-1.8176.6566-2.4616.1891-.6439.3035-.9971.3433-1.0594.0995-.1454.0895-.3479-.0299-.6076-.1194-.2597-.3183-.5453-.5969-.8569-.2786-.3116-.6119-.6232-.9999-.9348-.388-.3115-.7959-.5868-1.2237-.8257-.4278-.2389-.8506-.4206-1.2685-.5453-.4178-.1246-.7959-.1558-1.1342-.0934-.2188.0415-.4775.5608-.776 1.5579-.2984.9971-.7362 2.5862-1.3132 4.7674-.6567 1.5788-1.358 3.1419-2.1042 4.6895-.7462 1.5476-1.5222 3.0173-2.3281 4.409-.8058 1.3918-1.6266 2.6797-2.4623 3.8638-.8357 1.1841-1.6863 2.1915-2.5519 3.0225-.8656.8309-1.7261 1.4593-2.5817 1.8851-.8556.4259-1.6913.5868-2.5072.483-.2984-.0831-.4874-.2908-.567-.6232-.0796-.3324-.0747-.7323.0149-1.1996.0895-.4674.2338-.9919.4328-1.5736.1989-.5816.4278-1.1581.6864-1.7293.2587-.5713.5273-1.127.8059-1.6671.2786-.5401.5273-1.0074.7462-1.4021.5969-1.0179 1.2585-2.0981 1.9848-3.2406.7262-1.1425 1.4575-2.3058 2.1937-3.4899.7362-1.184 1.4525-2.3681 2.149-3.5521.6964-1.1841 1.3082-2.337 1.8355-3.4587.5273-1.1218.9551-2.1916 1.2834-3.2094.3283-1.01791.4925-1.9423.4925-2.77322 0-.27005-.0597-.62838-.1791-1.075-.1194-.44662-.3333-.88804-.6417-1.32427-.3084-.43623-.7262-.81014-1.2535-1.12174-.5273-.31159-1.1889-.46739-1.9848-.46739-.398 0-.9203.31679-1.567.95036-.6467.63358-1.4028 1.44372-2.2683 2.43043-.8656.98672-1.8257 2.08248-2.8802 3.28733-1.0546 1.2048-2.1888 2.3785-3.40257 3.521-1.21377 1.1425-2.49716 2.1863-3.85022 3.1315-1.35305.9452-2.74588 1.6567-4.17853 2.1344-.51735.1662-.8954.2909-1.134175.3739-.238774.0831-.397955.1455-.477547.187-.0795911.0415-.1094375.0831-.0895396.1246.0198979.0416.0198979.1039 0 .187-.0397958.2285-.004975.5141.1044636.8569.109438.3427.298465.6855.567087 1.0282.268621.3428.611851.6336 1.029711.8725.41785.2389.8954.3583 1.43264.3583.8954 0 1.7709-.1713 2.62651-.5141.85561-.3428 1.71618-.8257 2.58173-1.4489.86556-.6232 1.75594-1.3658 2.67124-2.2279.9153-.8621 1.8704-1.8228 2.8653-2.8822.9551-.9972 1.8853-2.0514 2.7907-3.1627.9053-1.1114 1.7361-2.2383 2.4922-3.38082 0 .14542-.1045.41022-.3134.79452-.2089.3843-.4726.8206-.7909 1.3087-.3184.4882-.6716.9971-1.0596 1.5269-.388.5297-.7611 1.023-1.1193 1.48-.3581.457-.6814.8465-.97 1.1685-.2885.322-.4924.5141-.6118.5764-1.0944 1.9112-2.1639 3.6457-3.2085 5.2037-1.0447 1.5579-1.97489 3.0432-2.79071 4.4558-.81581 1.4125-1.48238 2.8095-1.99972 4.1909-.51735 1.3814-.80586 2.8407-.86556 4.3779-.0199.8309.10446 1.6047.37309 2.3214.26862.7166.63672 1.3346 1.10432 1.8539.4676.5194 1.00484.9348 1.61172 1.2464.60689.3116 1.23864.4778 1.89526.4986.9551.0415 1.9251-.1922 2.9101-.7011.9849-.509 1.9499-1.1685 2.8951-1.9786.9451-.8102 1.8505-1.719 2.716-2.7265.8656-1.0075 1.6515-1.9942 2.3579-2.9601.7064-.966 1.3182-1.854 1.8356-2.6642.5173-.8101.9053-1.4229 1.164-1.8384-.0995 1.3087-.1393 2.6849-.1194 4.1287.0199 1.4437.1692 2.7835.4477 4.0195.2786 1.236.7213 2.285 1.3282 3.1471Zm22.8412-20.2359c-.1761-.1219-.3229-.194-.4404-.2161-.1762-.0222-.4893.1773-.9395.5984-.4502.4211-.9542 1.0195-1.5121 1.7952-.5578.7757-1.1304 1.6899-1.7176 2.7427-.5872 1.0528-1.1108 2.1886-1.5707 3.4076-.46 1.219-.8075 2.4934-1.0423 3.8232-.2349 1.3298-.2839 2.6596-.1468 3.9894.0783.7535.2593 1.363.5431 1.8284.2838.4655.597.8201.9396 1.0639.3425.2438.6703.41.9835.4986.3132.0887.5481.1441.7047.1663 1.0961.1108 2.0748-.0444 2.936-.4655.8613-.4211 1.6246-1.0305 2.2901-1.8284.6655-.7979 1.243-1.7288 1.7323-2.7926.4893-1.0638.9102-2.1831 1.2625-3.3577-.0392-.1773-.1566-.3103-.3523-.399-.1958-.0886-.4209-.1551-.6753-.1994-.2545-.0444-.5089-.0776-.7634-.0998-.2544-.0221-.4698-.0554-.6459-.0997.2153.0221.3963.0277.5431.0166.1468-.0111.2692-.0277.3671-.0499.822-.0221 1.6197-.1385 2.3928-.349.7732-.2106 1.4631-.4488 2.0699-.7148s1.1108-.5153 1.5121-.748c.4013-.2327.641-.3934.7193-.4821.0587-.0886.1224-.2438.1909-.4654.0685-.2216.1125-.4433.1321-.6649.0196-.2216.0147-.4156-.0147-.5818-.0294-.1662-.1125-.2493-.2496-.2493-.0587 0-.2251.0499-.4991.1496-.274.0997-.6068.2161-.9982.3491-.3915.1329-.8221.277-1.2919.4321-.4698.1552-.9493.2992-1.4387.4322.2349-1.1525.3817-2.1498.4405-2.992.0587-.4654.0342-.8921-.0734-1.2799-.1077-.3879-.2496-.7259-.4258-1.014-.1761-.2881-.3817-.5153-.6165-.6815-.2349-.1663-.46-.2605-.6753-.2826-.3524-.0222-.6851.0055-.9983.0831-.3132.0776-.6166.1828-.9102.3158-.1761-.2216-.367-.4432-.5725-.6649-.2055-.2216-.411-.4155-.6166-.5818-.2055-.1662-.3963-.3102-.5725-.4321Zm-1.983 5.7766c-.0769-.5483-.0865-1.1464-.0288-1.7944-.0962.2492-.1732.5421-.2309.8785-.0577.3365-.1106.6729-.1587 1.0094-.0481.3364-.0961.6417-.1442.9158-.0481.2742-.0914.4736-.1299.5982-.4039 1.1215-.7358 2.2305-.9954 3.3271-.2597 1.0966-.4328 2.0748-.5194 2.9346-.0866.8598-.0962 1.5576-.0289 2.0935.0674.5358.2164.8162.4473.8411.1154.0249.3077-.2056.5771-.6916.2693-.486.5818-1.1153.9377-1.8879s.731-1.6324 1.1253-2.5794c.3943-.9471.7646-1.8692 1.1109-2.7664-.4232-.1495-.8224-.4361-1.1975-.8598s-.6299-1.0966-.7646-2.0187Zm4.633 3.353c-.1952-.2688-.2885-.756-.2801-1.4616 0-.4032.0319-.8316.0955-1.2852.0636-.4536.1294-.798.1973-1.0332.0679-.2352.1273-.2772.1782-.126s.0636.63.0381 1.4364c-.0084.2016-.0318.5208-.07.9576-.0381.4368-.0912.9408-.159 1.512Zm8.3195-7.7184c0-.2921.0673-.4695.2018-.5321.1346-.0625.3172-.0625.5479 0 .0962.0418.3028.12.6201.2348.3172.1147.644.2868.9804.5163.3365.2295.6248.532.8652.9076.2403.3755.3316.8345.2739 1.3769-.0384.459-.1682 1.0275-.3893 1.7056-.2211.6781-.4854 1.4239-.793 2.2376.4422-.6677.918-1.3666 1.4274-2.0968.5095-.7302 1.0045-1.4082 1.4852-2.0341.4806-.6259.9228-1.1527 1.3265-1.5804.4037-.4277.7305-.6729.9805-.7354.4037-.1044.7882-.0522 1.1535.1564.3653.2087.6777.4799.9372.8137.2595.3338.447.6833.5623 1.0484.1154.3651.1154.6415 0 .8293-.3268.4798-.7209 1.1944-1.1823 2.1437-.4614.9492-.9324 2.0185-1.4131 3.2077.4807-.8137 1.0286-1.7056 1.6438-2.6757.6152-.9702 1.216-1.8829 1.8023-2.7383.5864-.8554 1.1343-1.5856 1.6438-2.1906.5095-.6051.8988-.9493 1.1679-1.0328.4037-.1252.793-.0782 1.1679.1409.3749.219.6921.4955.9517.8293.2595.3338.4421.678.5479 1.0327.1057.3547.1009.6259-.0144.8137-.25.3755-.5672.9336-.9517 1.6742-.3845.7407-.7882 1.6065-1.2112 2.5975-.4229.991-.8266 2.0707-1.2111 3.239-.3845 1.1683-.6969 2.368-.9373 3.5989-.2403 1.2309-.3796 2.4566-.4181 3.6771-.0385 1.2205.0865 2.3732.3749 3.4581.0577.1669.0529.3547-.0144.5633s-.3317.3025-.7931.2817c-.173-.0209-.4229-.0783-.7497-.1722-.3269-.0938-.6585-.2868-.9949-.5789-.3365-.2921-.6489-.7094-.9373-1.2518-.2883-.5425-.4806-1.2518-.5767-2.1281-.0577-.4381-.0529-1.1057.0144-2.0028.0673-.8971.2115-1.8933.4326-2.9887.2211-1.0953.5239-2.2323.9084-3.4111.3845-1.1788.8651-2.2689 1.4418-3.2703.0962-.146.1683-.3182.2163-.5164.0481-.1982.0529-.2973.0144-.2973-.0769-.0417-.2403.12-.4902.4851s-.5527.845-.9084 1.4396-.7401 1.2674-1.1535 2.0185c-.4133.7511-.8219 1.4969-1.2256 2.2376-.4037.7406-.7834 1.4395-1.1391 2.0967-.3556.6572-.6392 1.1944-.8507 1.6117-.1153.4798-.2211.9336-.3172 1.3613-.0961.4277-.1826.8502-.2595 1.2674-.0193.0835-.0289.1774-.0289.2817s-.0192.1982-.0576.2816c-.0385.0835-.1106.1513-.2163.2035-.1058.0521-.274.0782-.5047.0782-.173-.0209-.4277-.073-.7642-.1565-.3364-.0834-.6632-.2138-.9805-.3912-.3172-.1773-.5767-.4068-.7786-.6884-.2018-.2817-.2643-.6103-.1874-.9858.0384-.2295.1538-.7459.346-1.5491.1923-.8033.4566-1.7421.7931-2.8165.3364-1.0745.7353-2.2115 1.1967-3.4112.4614-1.1996.9805-2.3001 1.5573-3.3016.0961-.146.1682-.3181.2162-.5163.0481-.1982.0529-.2973.0145-.2973-.0577-.0418-.2019.0782-.4326.3599-.2307.2816-.5047.6624-.8219 1.1422-.3172.4799-.668 1.0275-1.0525 1.643-.3845.6155-.7739 1.2466-1.168 1.8933-.3941.6468-.7738 1.2779-1.1391 1.8934-.3652.6154-.6824 1.1631-.9516 1.6429-.4422 1.1266-.793 2.1489-1.0526 3.0669-.2595.918-.3412 1.596-.2451 2.0342.0385.1877.024.3129-.0432.3755-.0673.0626-.1586.0939-.274.0939-.1153 0-.2259-.0157-.3316-.0469-.1058-.0313-.1875-.0574-.2451-.0783-.0577-.0208-.1683-.073-.3317-.1565-.1634-.0834-.3412-.1773-.5335-.2816-.1922-.1043-.3845-.2243-.5767-.3599-.1923-.1356-.3269-.2764-.4038-.4225-.3268-.5216-.4469-1.1527-.3604-1.8933.0865-.7407.2835-1.5595.5911-2.4566.3076-.8972.6921-1.8621 1.1536-2.8948.4614-1.0327.9035-2.0863 1.3265-3.1608.4229-1.0744.7834-2.1645 1.0814-3.2703.298-1.1057.447-2.1802.447-3.2233Zm22.3689-8.9721c-.4101-.0322-.6259.0484-.6475.2417-.1079.7736-.7176 2.3905-1.829 4.8509-1.1115 2.4603-2.606 5.7318-4.4837 9.8144-.5395 1.2033-.9658 2.4335-1.2787 3.6905-.3129 1.2571-.5234 2.4335-.6313 3.5294-.1079 1.0958-.1241 2.0413-.0485 2.8363.0755.7951.2428 1.3108.5017 1.5471.1943.1934.4425.3492.7446.4674.3022.1182.6043.2041.9065.2578.3021.0538.5719.0699.8093.0484.2374-.0215.3885-.0752.4532-.1612v-.6446c0-.4083.0216-.9669.0647-1.676.0432-.7091.1295-1.5256.259-2.4496.1295-.924.3453-1.9124.6475-2.9653.1511-.1934.4316-.5264.8417-.9992.41-.4727.874-.9884 1.392-1.5471.518-.5587 1.0467-1.112 1.5863-1.6599.5395-.5479 1.0305-.9884 1.4729-1.3215.4425-.333.7878-.5157 1.036-.5479.2482-.0323.3399.1772.2751.6285l-.1295.9347c-.8417.6231-1.6672 1.3-2.4765 2.0306-.8093.7306-1.5323 1.5041-2.169 2.3206-.6366.8166-1.16 1.6653-1.57 2.5463-.4101.881-.6475 1.7835-.7122 2.7075-.0216.2148-.0054.4781.0485.7896.054.3116.1673.6124.3399.9025.1727.2901.4263.5318.7608.7252.3345.1934.7716.2686 1.3111.2256 1.187-.0644 2.2499-.4995 3.1887-1.3053.9388-.8058 1.7535-1.7835 2.4442-2.9331.6906-1.1496 1.2679-2.3797 1.7319-3.6905.464-1.3107.8255-2.514 1.0845-3.6099l-4.1761 2.4496c1.1439-.9455 2.4873-1.8694 4.0304-2.7719.2795-.1635.5659-.3223.8592-.4766-.1636.36-.3207.7279-.4713 1.1037-.4888 1.219-.8579 2.4934-1.1075 3.8232-.2495 1.3298-.3015 2.6596-.156 3.9894.0832.7535.2756 1.363.5772 1.8284.3015.4655.6343.8201.9982 1.0639.364.2438.7123.41 1.0451.4986.3327.0887.5823.1441.7487.1663 1.1646.1108 2.2044-.0444 3.1195-.4655.9151-.4211 1.7261-1.0305 2.4332-1.8284.7071-.7979 1.3206-1.7288 1.8406-2.7926.5199-1.0638.967-2.1831 1.3414-3.3577-.0416-.1773-.1664-.3103-.3744-.399-.2079-.0886-.4471-.1551-.7175-.1994-.2703-.0444-.5407-.0776-.811-.0998-.2704-.0221-.4992-.0554-.6863-.0997.2287.0221.4211.0277.5771.0166.1559-.0111.2859-.0277.3899-.0499.8735-.0221 1.721-.1385 2.5422-.349.822-.2106 1.555-.4488 2.2-.7148.644-.266 1.18-.5153 1.606-.748.426-.2327.681-.3934.764-.4821.063-.0886.13-.2438.203-.4654.073-.2216.12-.4433.141-.6649.02-.2216.015-.4156-.016-.5818-.031-.1662-.12-.2493-.265-.2493-.063 0-.239.0499-.531.1496-.291.0997-.644.2161-1.06.3491-.416.1329-.874.277-1.373.4321-.499.1552-1.008.2992-1.528.4322.249-1.1525.405-2.1498.468-2.992.062-.4654.036-.8921-.078-1.2799-.115-.3879-.266-.7259-.453-1.014-.1869-.2881-.4053-.5153-.6549-.6815-.2495-.1663-.4887-.2605-.7175-.2826-.3743-.0222-.7279.0055-1.0606.0831-.3328.0776-.6551.1828-.9671.3158-.1871-.2216-.3899-.4432-.6083-.6649-.2184-.2216-.4367-.4155-.6551-.5818-.2184-.1662-.4211-.3102-.6083-.4321-.1872-.1219-.3432-.194-.4679-.2161-.1872-.0222-.52.1773-.9983.5984-.4783.4211-1.0138 1.0195-1.6066 1.7952-.3948.5168-.7966 1.095-1.2053 1.7348-.098.023-.2024.0503-.3132.0818-.5287.1504-1.1384.3867-1.829.7091 0-.086.0108-.1505.0323-.1934.0648-.8166-.1402-1.4773-.615-1.9823-.4748-.5049-1.0899-.7467-1.8453-.7252-.4316 0-.8848.129-1.3596.3868-.4748.2579-.9496.5802-1.4244.9669-.4749.3868-.9335.8219-1.3759 1.3054-.4424.4835-.8471.9562-1.214 1.4182-.3669.462-.6906.8864-.9712 1.2731-.2805.3868-.4855.6876-.615.9025.5827-1.1818 1.1384-2.2562 1.6672-3.2231.5287-.967 1.0305-1.8909 1.5053-2.7719.4748-.881.9064-1.7566 1.2949-2.6269.3885-.8702.7122-1.821.9712-2.8525.2374-.9239.2212-1.6867-.0486-2.2884-.2697-.6016-.6204-1.0529-1.0521-1.3537-.4316-.3008-.8525-.4674-1.2625-.4996Zm11.092 12.3851c-.0199-.0344-.0429-.0694-.0691-.1049-.1187-.1612-.3129-.3223-.5827-.4835s-.6528-.2955-1.1492-.4029c-.1877-.034-.4664-.0075-.8361.0794-.2048.3205-.4113.6565-.6196 1.0079-.4315.7282-.8308 1.4961-1.1976 2.3039 1.3133-.691 2.7651-1.29 4.3553-1.7972-.0229.1477-.045.2954-.0661.4432-.0481.3364-.0962.6417-.1443.9158-.0481.2742-.0913.4736-.1298.5982-.404 1.1215-.7358 2.2305-.9955 3.3271-.2597 1.0966-.4328 2.0748-.5193 2.9346-.0866.8598-.0962 1.5576-.0289 2.0935.0673.5358.2164.8162.4472.8411.1155.0249.3078-.2056.5771-.6916.2693-.486.5819-1.1153.9378-1.8879.3558-.7726.7309-1.6324 1.1253-2.5794.3943-.9471.7646-1.8692 1.1108-2.7664-.4232-.1495-.8223-.4361-1.1974-.8598s-.63-1.0966-.7646-2.0187c-.077-.5483-.0866-1.1464-.0289-1.7944-.0927.2402-.1675.5209-.2244.842Zm0 0c.0703.122.1012.2374.0928.3463-.0108.1397-.0594.2203-.1457.2417l-.0461.0147c.0294-.1887.0602-.3775.0926-.5662l.0064-.0365ZM79.7629 34.6476c.4169-.0394.8206-.197 1.2114-.4729.3908-.2759.762-.6159 1.1137-1.0199.3517-.404.6708-.8425.9574-1.3154.2866-.473.5341-.9361.7425-1.3894-.8337.5715-1.5501 1.1135-2.1493 1.6258-.5991.5124-1.0681.9608-1.4067 1.3451-.3387.3843-.5536.6897-.6448.9163-.0912.2267-.0326.3301.1758.3104Zm17.3019-6.4002c-.1951-.2688-.2885-.756-.28-1.4616 0-.4032.0318-.8316.0955-1.2852.0636-.4536.1294-.798.1972-1.0332.0679-.2352.1273-.2772.1782-.126s.0637.63.0382 1.4364c-.0085.2016-.0318.5208-.07.9576-.0382.4368-.0912.9408-.1591 1.512Z" clip-rule="evenodd"/>
  <path fill="url(#a)" fill-rule="evenodd" d="M81.6176 54.738c1.3472.8413 3.0082 1.262 4.9832 1.262 1.5754 0 2.8483-.3478 3.8186-1.0433.9704-.7067 1.4556-1.649 1.4556-2.8269 0-.8862-.3025-1.6266-.9076-2.2211-.605-.5946-1.5354-1.077-2.7912-1.4472-1.1645-.3477-1.9122-.5833-2.2433-.7067-.331-.157-.4966-.3085-.4966-.4543 0-.2917.3539-.4375 1.0617-.4375.7078 0 1.5069.1178 2.3974.3533.879.2132 1.6154.4936 2.209.8414v-3.3654c-1.3699-.6282-2.814-.9423-4.3324-.9423-1.6097 0-2.8711.3141-3.7844.9423-.9133.6282-1.37 1.5313-1.37 2.7091 0 .9536.3283 1.7248.9847 2.3137.6564.589 1.641 1.0742 2.9539 1.4556.9932.2916 1.6553.5104 1.9864.6562.3425.1571.5137.3141.5137.4712 0 .3702-.4623.5553-1.387.5553-.7878 0-1.6953-.1627-2.7228-.488-1.0046-.3141-1.7809-.7011-2.3289-1.1611v3.5337Zm-65.0003.9309H13.125V44.0811h8.9338v3.0625h-5.4415v1.1422h3.9147V51.1h-3.9147v4.5689Zm18.3459 0h-3.6397V44.0811h3.6397v11.5878Zm8.603 0H52.5v-3.0625h-5.3301v-8.5253h-3.6037v11.5878Zm20.6846 0h-3.4787V44.0811h3.5624l2.5589 4.1219 2.5756-4.1219h3.5457v11.5878h-3.4453v-6.4892l-1.6558 2.7646h-1.9401l-1.7227-2.7646v6.4892Z" clip-rule="evenodd"/>
  <defs>
    <linearGradient id="a" x1="13.125" x2="13.125" y1="43.75" y2="56" gradientUnits="userSpaceOnUse">
      <stop stop-color="#DC773D"/>
      <stop offset="1" stop-color="#F8544D"/>
    </linearGradient>
  </defs>
</svg>